<svg width="24" height="24" viewBox="0 0 24 24" fill="none" xmlns="http://www.w3.org/2000/svg">
<mask id="path-1-inside-1_1351_1096" fill="white">
<path fill-rule="evenodd" clip-rule="evenodd" d="M2 7.15124V16.0001C2 17.6569 3.34315 19.0001 5 19.0001H19C20.6569 19.0001 22 17.6569 22 16.0001V7.15198L14.7278 14.4242C13.2215 15.9305 10.7793 15.9305 9.27296 14.4242L2 7.15124ZM21.5724 5.65083C21.5315 5.76205 21.4652 5.86854 21.3705 5.96323L13.8186 13.5151C12.8144 14.5193 11.1863 14.5193 10.1821 13.5151L2.63027 5.96323C2.53541 5.86837 2.46901 5.76168 2.42816 5.65024C2.88877 4.95697 3.67677 4.5 4.57149 4.5H19.4286C20.3236 4.5 21.1118 4.95722 21.5724 5.65083Z"/>
</mask>
<path fill-rule="evenodd" clip-rule="evenodd" d="M2 7.15124V16.0001C2 17.6569 3.34315 19.0001 5 19.0001H19C20.6569 19.0001 22 17.6569 22 16.0001V7.15198L14.7278 14.4242C13.2215 15.9305 10.7793 15.9305 9.27296 14.4242L2 7.15124ZM21.5724 5.65083C21.5315 5.76205 21.4652 5.86854 21.3705 5.96323L13.8186 13.5151C12.8144 14.5193 11.1863 14.5193 10.1821 13.5151L2.63027 5.96323C2.53541 5.86837 2.46901 5.76168 2.42816 5.65024C2.88877 4.95697 3.67677 4.5 4.57149 4.5H19.4286C20.3236 4.5 21.1118 4.95722 21.5724 5.65083Z" fill="white"/>
<path d="M2 7.15124L2.35355 6.79768L1.5 5.94413V7.15124H2ZM22 7.15198H22.5V5.94487L21.6464 6.79842L22 7.15198ZM14.7278 14.4242L15.0813 14.7777L15.0813 14.7777L14.7278 14.4242ZM9.27296 14.4242L8.9194 14.7777L8.9194 14.7777L9.27296 14.4242ZM21.3705 5.96323L21.724 6.31679L21.724 6.31678L21.3705 5.96323ZM21.5724 5.65083L22.0417 5.82331L22.1291 5.5854L21.9889 5.37425L21.5724 5.65083ZM13.8186 13.5151L13.4651 13.1615L13.4651 13.1615L13.8186 13.5151ZM10.1821 13.5151L9.82854 13.8686L9.82854 13.8686L10.1821 13.5151ZM2.63027 5.96323L2.98382 5.60968L2.98382 5.60968L2.63027 5.96323ZM2.42816 5.65024L2.0117 5.37354L1.87151 5.58453L1.95872 5.82236L2.42816 5.65024ZM2.5 16.0001V7.15124H1.5V16.0001H2.5ZM5 18.5001C3.61929 18.5001 2.5 17.3808 2.5 16.0001H1.5C1.5 17.9331 3.067 19.5001 5 19.5001V18.5001ZM19 18.5001H5V19.5001H19V18.5001ZM21.5 16.0001C21.5 17.3808 20.3807 18.5001 19 18.5001V19.5001C20.933 19.5001 22.5 17.9331 22.5 16.0001H21.5ZM21.5 7.15198V16.0001H22.5V7.15198H21.5ZM21.6464 6.79842L14.3742 14.0706L15.0813 14.7777L22.3536 7.50553L21.6464 6.79842ZM14.3742 14.0706C13.0632 15.3817 10.9376 15.3817 9.62651 14.0706L8.9194 14.7777C10.621 16.4793 13.3798 16.4793 15.0813 14.7777L14.3742 14.0706ZM9.62651 14.0706L2.35355 6.79768L1.64645 7.50479L8.9194 14.7777L9.62651 14.0706ZM21.724 6.31678C21.8696 6.1712 21.9756 6.00305 22.0417 5.82331L21.1031 5.47835C21.0874 5.52106 21.0607 5.56588 21.0169 5.60968L21.724 6.31678ZM14.1722 13.8686L21.724 6.31679L21.0169 5.60968L13.4651 13.1615L14.1722 13.8686ZM9.82854 13.8686C11.028 15.0681 12.9727 15.0681 14.1722 13.8686L13.4651 13.1615C12.6561 13.9704 11.3446 13.9704 10.5356 13.1615L9.82854 13.8686ZM2.27672 6.31679L9.82854 13.8686L10.5356 13.1615L2.98382 5.60968L2.27672 6.31679ZM1.95872 5.82236C2.02475 6.00245 2.13087 6.17094 2.27672 6.31679L2.98382 5.60968C2.93995 5.5658 2.91328 5.5209 2.8976 5.47812L1.95872 5.82236ZM4.57149 4C3.50231 4 2.56103 4.54673 2.0117 5.37354L2.84462 5.92694C3.21651 5.3672 3.85123 5 4.57149 5V4ZM19.4286 4H4.57149V5H19.4286V4ZM21.9889 5.37425C21.4396 4.54704 20.4981 4 19.4286 4V5C20.1491 5 20.784 5.36741 21.1558 5.92741L21.9889 5.37425Z" fill="white" fill-opacity="0.3" mask="url(#path-1-inside-1_1351_1096)"/>
</svg>
