<svg width="24" height="24" viewBox="0 0 24 24" fill="none" xmlns="http://www.w3.org/2000/svg">
<path d="M21.0399 3.02517C21.0399 3.02517 23.1674 2.20275 22.9894 4.19991C22.9308 5.02234 22.3991 7.90109 21.9851 11.0144L20.5668 20.2375C20.5668 20.2375 20.4485 21.5886 19.3845 21.8237C18.321 22.0582 16.7253 21.0013 16.4296 20.7662C16.193 20.5898 11.9972 17.9461 10.5198 16.6541C10.1058 16.3012 9.63264 15.5966 10.5789 14.7742L16.7839 8.89941C17.4931 8.19478 18.2022 6.54993 15.2473 8.54709L6.97289 14.1276C6.97289 14.1276 6.02717 14.7156 4.25455 14.1868L0.412512 13.0115C0.412512 13.0115 -1.0058 12.1305 1.41738 11.2494C7.32775 8.48846 14.5973 5.66888 21.0388 3.02517H21.0399Z" fill="white"/>
</svg>
