<svg width="240" height="24" fill="none" xmlns="http://www.w3.org/2000/svg"><path fill-rule="evenodd" clip-rule="evenodd" d="M34.38 4l-16.187 7.782L2.077 4 0 6.11 12.534 20l5.659-5.745L23.923 20 36.457 6.11 34.38 4zm11.557 14.567V8.445h2.694v1.053c.759-.426 1.477-.75 2.156-.952a6.847 6.847 0 011.936-.304c.2 0 .42.02.639.061l.12.024c.166.033.346.07.539.118v2.49c-.086-.025-.188-.042-.3-.061a7.008 7.008 0 01-.22-.04 3.28 3.28 0 00-.638-.061c-.679 0-1.337.121-1.976.324-.639.202-1.357.546-2.156.992v6.478h-2.794zm17.669 0v-1.923h-.1c-.4.749-.938 1.295-1.617 1.62-.679.344-1.537.506-2.575.506a5.741 5.741 0 01-2.076-.365 4.81 4.81 0 01-1.657-1.032 4.687 4.687 0 01-1.077-1.6c-.26-.607-.38-1.295-.38-2.065 0-.81.1-1.538.32-2.206a4.31 4.31 0 01.998-1.741c.439-.486 1.018-.85 1.716-1.114.679-.263 1.497-.405 2.456-.405a9.38 9.38 0 011.816.203c.619.142 1.317.344 2.076.607V4.598H66.3v13.969h-2.694zm-.1-5.466v-1.417a8.914 8.914 0 00-1.637-.648 6.48 6.48 0 00-1.757-.263c-1.077 0-1.856.223-2.355.668-.499.445-.738 1.134-.738 2.065 0 .425.04.81.16 1.134.1.344.279.627.518.87.24.243.56.425.958.547.4.121.919.182 1.517.182 1.058 0 1.877-.263 2.456-.81.578-.546.878-1.316.878-2.328zm14.867 2.328v2.632c-.559.243-1.217.405-1.976.526-.758.122-1.517.183-2.315.183-.978 0-1.837-.122-2.595-.385a5.216 5.216 0 01-1.916-1.073 4.262 4.262 0 01-1.178-1.66c-.28-.648-.4-1.356-.4-2.146 0-.77.12-1.498.4-2.146a4.414 4.414 0 011.178-1.66 5.867 5.867 0 011.916-1.073 8.446 8.446 0 012.595-.385c.798 0 1.557.061 2.315.183a9.338 9.338 0 011.976.526v2.632a9.647 9.647 0 00-2.076-.628 11.117 11.117 0 00-1.936-.182c-1.217 0-2.096.243-2.654.729-.56.486-.819 1.154-.819 2.004 0 .87.26 1.538.819 2.024.558.486 1.437.709 2.654.709.599 0 1.258-.04 1.936-.162a8.713 8.713 0 002.076-.648zm4.484 3.138h-2.795V4.598h2.795v13.969zm2.086 0V8.445h2.695v1.053c.758-.426 1.477-.75 2.155-.952a6.848 6.848 0 011.937-.304 3.575 3.575 0 01.758.085c.167.033.347.07.54.118v2.49c-.087-.025-.188-.042-.3-.061a6.96 6.96 0 01-.22-.04c-.2-.04-.419-.061-.639-.061-.678 0-1.337.121-1.976.324-.638.202-1.357.546-2.155.992v6.478h-2.795zm7.438-.223c-.319-.283-.459-.648-.459-1.133 0-.446.14-.83.46-1.114.299-.283.718-.425 1.237-.425.519 0 .918.142 1.237.425.3.284.46.668.46 1.114 0 .486-.16.85-.46 1.133-.319.284-.718.425-1.237.425-.52 0-.938-.141-1.238-.425zm4.332-.283v-2.53a7.503 7.503 0 002.295.667c.799.102 1.637.142 2.495.142.639 0 1.118-.04 1.437-.162.3-.101.46-.283.46-.567 0-.121-.08-.222-.2-.303a1.971 1.971 0 00-.459-.223c-.2-.06-.399-.122-.619-.162a5.53 5.53 0 01-.441-.105l-.138-.037-1.696-.425c-.6-.142-1.098-.324-1.497-.546a3.65 3.65 0 01-1.018-.709 2.398 2.398 0 01-.56-.87 2.576 2.576 0 01-.159-.952c0-.344.08-.709.26-1.073s.459-.688.818-.972c.36-.283.838-.526 1.397-.708.559-.182 1.238-.284 2.016-.284.898 0 1.737.061 2.495.183a9.534 9.534 0 011.996.526v2.53a9.79 9.79 0 00-2.096-.627 11.87 11.87 0 00-2.095-.182c-.599 0-1.058.06-1.378.162-.32.121-.479.303-.479.566 0 .122.06.223.18.304.12.081.279.162.479.223.18.06.379.121.599.162l.599.121 1.656.405a8.709 8.709 0 011.517.547c.399.222.739.465.998.729.24.263.419.546.539.87.12.324.18.648.18.972 0 .324-.08.668-.24 1.032-.159.365-.439.689-.798.972-.379.304-.858.547-1.457.749-.599.203-1.318.284-2.196.284-.998 0-1.936-.041-2.774-.162-.859-.102-1.557-.284-2.116-.547zm20.872-2.632v2.632c-.559.243-1.218.405-1.976.526-.759.122-1.517.183-2.316.183-.978 0-1.836-.122-2.595-.385a5.22 5.22 0 01-1.916-1.073 4.255 4.255 0 01-1.177-1.66c-.28-.648-.4-1.356-.4-2.146 0-.77.12-1.498.4-2.146a4.407 4.407 0 011.177-1.66 5.872 5.872 0 011.916-1.073 8.45 8.45 0 012.595-.385c.799 0 1.557.061 2.316.183a9.347 9.347 0 011.976.526v2.632a9.65 9.65 0 00-2.076-.628 11.116 11.116 0 00-1.936-.182c-1.218 0-2.096.243-2.655.729-.559.486-.818 1.154-.818 2.004 0 .87.259 1.538.818 2.024.559.486 1.437.709 2.655.709.599 0 1.257-.04 1.936-.162a8.715 8.715 0 002.076-.648zm4.483 3.138h-2.794V4.598h2.794v4.657a18.246 18.246 0 012.395-.79c.32-.08.599-.121.879-.162.279-.04.558-.06.858-.06.639 0 1.217.1 1.736.283.519.182.979.445 1.358.77.359.343.658.748.858 1.214.2.486.299 1.012.299 1.579v6.478h-2.794v-5.466c0-.729-.2-1.296-.599-1.7-.399-.405-.958-.628-1.676-.628-.36 0-.819.101-1.398.283-.599.203-1.237.466-1.916.83v6.681zm10.293-2.875c-.279-.648-.419-1.376-.419-2.186s.14-1.539.419-2.186a4.705 4.705 0 011.198-1.66 5.493 5.493 0 011.916-1.053c.759-.243 1.597-.365 2.555-.365.938 0 1.777.122 2.535.365a5.484 5.484 0 011.916 1.053 4.746 4.746 0 011.218 1.66c.279.647.419 1.376.419 2.186s-.14 1.538-.419 2.186a4.57 4.57 0 01-1.218 1.66c-.519.466-1.157.81-1.916 1.053-.758.243-1.597.364-2.535.364-.958 0-1.796-.121-2.555-.364-.758-.243-1.397-.587-1.916-1.053a4.532 4.532 0 01-1.198-1.66zm5.669-4.919c-2.136 0-3.193.911-3.193 2.733s1.057 2.733 3.193 2.733c2.116 0 3.194-.911 3.194-2.733s-1.078-2.733-3.194-2.733zm7.714 4.92c-.28-.649-.42-1.377-.42-2.187 0-.81.14-1.539.42-2.186a4.69 4.69 0 011.197-1.66 5.493 5.493 0 011.916-1.053c.759-.243 1.597-.365 2.555-.365.938 0 1.777.122 2.535.365a5.489 5.489 0 011.917 1.053 4.743 4.743 0 011.217 1.66c.28.647.419 1.376.419 2.186s-.139 1.538-.419 2.186a4.567 4.567 0 01-1.217 1.66c-.519.466-1.158.81-1.917 1.053-.758.243-1.597.364-2.535.364-.958 0-1.796-.121-2.555-.364-.758-.243-1.397-.587-1.916-1.053a4.519 4.519 0 01-1.197-1.66zm5.668-4.92c-2.135 0-3.193.911-3.193 2.733s1.058 2.733 3.193 2.733c2.116 0 3.194-.911 3.194-2.733s-1.078-2.733-3.194-2.733zM162 18.567h-2.794V4.598H162v13.969z" fill="#fff"/><path d="M189.898 11.4V19h2.8v-7.6h3.5V9h-3.5c0-.52.14-.9.46-1.14.3-.24.78-.36 1.44-.36.26 0 .54.02.84.04.28.04.58.08.86.16V5.2c-.24-.08-.56-.12-.92-.16-.38-.02-.74-.04-1.08-.04-.76 0-1.4.1-1.96.28-.56.2-1 .46-1.36.78-.36.34-.64.74-.82 1.2-.18.48-.26.98-.26 1.54V9h-1.5v2.4h1.5zm7.299-2.4v10h2.8v-6.4c.8-.44 1.52-.78 2.16-.98.64-.2 1.3-.32 1.98-.32.22 0 .44.02.64.06.2.04.38.06.52.1V9c-.24-.06-.46-.1-.66-.14-.22-.04-.44-.06-.64-.06-.6 0-1.26.1-1.94.3-.68.2-1.4.52-2.16.94V9h-2.7zm8.204 5c0 .8.14 1.52.42 2.16.28.64.68 1.2 1.2 1.64.52.46 1.16.8 1.92 1.04s1.6.36 2.56.36c.94 0 1.78-.12 2.54-.36s1.4-.58 1.92-1.04c.52-.44.94-1 1.22-1.64.28-.64.42-1.36.42-2.16s-.14-1.52-.42-2.16c-.28-.64-.7-1.18-1.22-1.64-.52-.44-1.16-.8-1.92-1.04s-1.6-.36-2.54-.36c-.96 0-1.8.12-2.56.36s-1.4.6-1.92 1.04c-.52.46-.92 1-1.2 1.64-.28.64-.42 1.36-.42 2.16zm2.9 0c0-1.8 1.06-2.7 3.2-2.7 2.12 0 3.2.9 3.2 2.7 0 1.8-1.08 2.7-3.2 2.7-2.14 0-3.2-.9-3.2-2.7zm10.908-5v10h2.8v-6.6c.68-.36 1.32-.62 1.92-.82.58-.18 1.04-.28 1.4-.28.72 0 1.28.22 1.68.62.4.4.6.96.6 1.68V19h2.8v-6.4c0-.56-.1-1.08-.3-1.56-.2-.46-.5-.86-.86-1.2a4.28 4.28 0 00-1.36-.76 5.29 5.29 0 00-1.74-.28c-.3 0-.58.02-.86.06-.28.04-.6.08-.92.16-.32.08-.68.2-1.08.32-.4.14-.86.3-1.38.5V9h-2.7zm14.096 2.4v3.8c0 1.24.34 2.2 1.06 2.92.72.72 1.82 1.08 3.34 1.08.16 0 .36 0 .56-.02.2 0 .4-.02.6-.04.2-.02.38-.04.56-.08.18-.04.34-.08.48-.14v-2.5c-.32.12-.64.18-.98.22-.36.04-.66.06-.92.06-.66 0-1.14-.12-1.44-.36-.32-.24-.46-.7-.46-1.34v-3.6h3.7V9h-3.7V6.1h-2.8V9h-1.8v2.4h1.8z" fill="#F51B1B"/><path fill-rule="evenodd" clip-rule="evenodd" d="M176.233 12H181c-5.211.6-10.256 5.4-11 12V0c.744 6.6 5.789 11.4 11 12h-4.767z" fill="#F51B1B"/></svg>