<svg width="24" height="24" fill="none" xmlns="http://www.w3.org/2000/svg"><path d="M13.947 5.073c-.7.703-.7 1.843 0 2.546l1.27 1.273c.254.255.566.418.894.488.35.075.674.39.577.736a9.535 9.535 0 01-2.476 4.22 9.492 9.492 0 01-4.24 2.43c-.289.076-.551-.19-.592-.486a1.794 1.794 0 00-.509-1.023l-1.269-1.273a1.791 1.791 0 00-2.538 0L2.526 16.53a1.804 1.804 0 000 2.546c.51.512.997 1.153 1.614 1.543.662.4 1.527.345 2.3.371 1.276.042 3.265-.043 4.547-.384a13.451 13.451 0 006.007-3.442 13.51 13.51 0 003.51-5.98c.42-1.51.496-2.823.496-4.629 0-.903-.013-1.794-.494-2.498a1.817 1.817 0 00-.213-.257l-1.269-1.273a1.791 1.791 0 00-2.538 0l-2.539 2.546z" fill="#fff"/><path d="M10.036 17.007h0a.667.667 0 01-.618-.157.886.886 0 01-.286-.536 1.544 1.544 0 00-.438-.88h0L7.425 14.16s0 0 0 0a1.541 1.541 0 00-2.184 0l-2.538 2.546a1.554 1.554 0 000 2.193c.144.145.297.311.447.474.11.12.22.24.323.347.257.268.516.508.798.687.286.171.625.251 1.002.29.265.026.531.03.803.035.122.002.246.004.372.008 1.267.042 3.228-.044 4.474-.375a13.2 13.2 0 005.896-3.378h0a13.26 13.26 0 003.445-5.87c.411-1.477.487-2.764.487-4.562 0-.918-.02-1.727-.45-2.357a1.554 1.554 0 00-.184-.221h0l-1.27-1.273a1.541 1.541 0 00-2.183 0L14.124 5.25a1.554 1.554 0 000 2.192l1.27 1.273c.22.22.487.36.769.42.226.048.444.173.594.349l-6.721 7.523zm0 0a9.741 9.741 0 004.351-2.493m-4.351 2.493l4.351-2.493m0 0a9.783 9.783 0 002.542-4.33l-2.542 4.33z" stroke="#fff" stroke-opacity=".3" stroke-width=".5"/></svg>